<svg width="247" height="246" viewBox="0 0 247 246" fill="none" xmlns="http://www.w3.org/2000/svg">
<ellipse cx="121.264" cy="120.5" rx="113" ry="112.5" fill="#FCFAFA"/>
<path d="M123.264 0C191.197 0 246.264 55.0672 246.264 123C246.264 190.933 191.197 246 123.264 246C101.527 246.037 80.1717 240.284 61.3948 229.333C61.2415 229.39 5.75751 249.991 0.763977 244C-4.22973 238.008 16.8895 185.027 16.9427 184.894C5.98295 166.111 0.225902 144.747 0.263977 123C0.263977 55.0673 55.3313 0.000163341 123.264 0ZM83.8187 65.2266C82.1672 65.1318 80.5109 65.1489 78.8616 65.2764L81.346 65.1904L78.886 65.2881C77.2955 65.3977 75.7409 65.8159 74.3099 66.5186C72.9764 67.2751 71.7583 68.219 70.6937 69.3223C69.2177 70.7122 68.3816 71.9184 67.4837 73.0869C62.9344 79.0019 60.4846 86.2636 60.5218 93.7256C60.5464 99.7525 62.1214 105.62 64.5814 111.105C69.612 122.2 77.8896 133.947 88.8118 144.832C89.2609 145.279 89.7082 145.727 90.1556 146.174L81.6331 155.522C79.1576 154.327 76.4054 153.6 73.4857 153.464C61.9003 152.923 52.0704 161.877 51.5296 173.462C50.9892 185.047 59.9425 194.877 71.5276 195.418C83.1128 195.959 92.9427 187.005 93.4837 175.42C93.6673 171.487 92.7551 167.757 91.0189 164.523L99.7044 154.997C112.657 165.669 127.78 173.421 144.039 177.698L151.026 178.769C153.301 178.892 155.577 178.719 157.865 178.608C161.446 178.419 164.943 177.449 168.11 175.767C169.719 174.934 171.291 174.031 172.821 173.061C172.821 173.061 173.342 172.709 174.359 171.954C176.019 170.724 177.04 169.85 178.417 168.411C179.45 167.345 180.312 166.107 181 164.697C181.96 162.692 182.919 158.866 183.313 155.681C183.608 153.245 183.522 151.917 183.485 151.093C183.435 149.777 182.341 148.412 181.148 147.834L173.99 144.623C173.99 144.623 163.288 139.962 156.744 136.985C156.06 136.687 155.326 136.516 154.58 136.48C153.739 136.392 152.887 136.486 152.085 136.756C151.283 137.025 150.549 137.465 149.931 138.043C149.869 138.018 149.045 138.719 140.152 149.494C139.641 150.18 138.938 150.699 138.132 150.983C137.326 151.268 136.453 151.306 135.625 151.093C134.824 150.879 134.039 150.608 133.277 150.281C131.752 149.642 131.222 149.396 130.177 148.953C123.115 145.877 116.578 141.714 110.804 136.616C109.254 135.263 107.815 133.787 106.339 132.36C101.501 127.726 97.2834 122.483 93.7933 116.764L93.0677 115.596C92.5544 114.806 92.1331 113.96 91.8128 113.074C91.3454 111.266 92.5638 109.814 92.5638 109.814C92.5803 109.796 95.5566 106.538 96.9427 104.771C98.2956 103.05 99.4391 101.377 100.177 100.184C101.628 97.8466 102.083 95.4481 101.321 93.5908C97.8766 85.1776 94.3184 76.8093 90.6448 68.4863C89.9191 66.8381 87.7665 65.6575 85.8109 65.4238C85.1468 65.3418 84.4827 65.2758 83.8187 65.2266ZM72.8792 166.449C77.2926 166.655 80.7033 170.4 80.4974 174.813L80.4681 175.224C80.0571 179.436 76.4085 182.631 72.1331 182.432C67.7202 182.225 64.3091 178.481 64.515 174.067C64.7211 169.654 68.466 166.243 72.8792 166.449ZM163.616 53.4863C152.026 53.0588 142.284 62.1074 141.856 73.6973C141.711 77.6312 142.658 81.3522 144.425 84.5684L119.232 112.753C117.024 115.223 117.236 119.016 119.706 121.225L120.451 121.891C122.922 124.099 126.716 123.887 128.924 121.416L153.899 93.4775C156.386 94.6494 159.146 95.3493 162.068 95.457C173.658 95.8844 183.4 86.8359 183.827 75.2461C184.255 63.6561 175.206 53.9139 163.616 53.4863ZM163.136 66.4766C167.551 66.6394 170.999 70.3512 170.836 74.7666C170.673 79.1818 166.961 82.6287 162.546 82.4658C158.131 82.3028 154.684 78.5919 154.847 74.1768L154.872 73.7666C155.242 69.5502 158.859 66.319 163.136 66.4766Z" fill="#4EA156"/>
</svg>
